<?xml version="1.0" standalone="no"?>
<!DOCTYPE svg PUBLIC "-//W3C//DTD SVG 20010904//EN"
 "http://www.w3.org/TR/2001/REC-SVG-20010904/DTD/svg10.dtd">
<svg version="1.0" xmlns="http://www.w3.org/2000/svg"
 width="736.000000pt" height="736.000000pt" viewBox="0 0 736.000000 736.000000"
 preserveAspectRatio="xMidYMid meet">

<g transform="translate(0.000000,736.000000) scale(0.100000,-0.100000)"
fill="#000000" stroke="none">
<path d="M3565 6384 c-193 -21 -387 -88 -555 -192 -75 -47 -214 -165 -370
-315 -185 -178 -312 -274 -393 -296 -57 -17 -65 -26 -40 -53 25 -28 57 -39
120 -39 30 -1 52 -4 50 -8 -48 -89 -70 -187 -65 -296 5 -112 41 -198 119 -280
57 -60 177 -128 248 -140 39 -6 40 -8 34 -38 -3 -18 -12 -39 -19 -48 -18 -20
-18 -48 0 -55 8 -3 18 -20 22 -37 14 -69 63 -156 113 -204 47 -45 49 -49 32
-60 -11 -7 -26 -23 -33 -37 -106 -200 -235 -412 -346 -570 -49 -71 -76 -134
-108 -264 -29 -112 -29 -112 -56 -107 -20 5 -41 -2 -80 -27 -29 -18 -95 -53
-145 -78 -51 -25 -93 -47 -93 -50 0 -3 39 -14 88 -24 132 -27 165 -45 188
-100 10 -25 22 -46 25 -46 8 0 30 77 95 330 31 124 66 245 76 270 11 25 50 90
87 145 98 144 142 215 249 410 72 131 90 155 107 149 8 -3 31 -35 50 -70 20
-36 59 -88 88 -117 67 -68 145 -182 153 -223 4 -25 1 -41 -15 -63 -29 -40
-174 -136 -238 -156 -90 -29 -134 -6 -66 36 65 40 102 72 142 124 59 78 65 93
48 118 -29 44 -139 157 -153 157 -15 0 -19 -26 -5 -32 17 -6 131 -141 131
-155 0 -7 -15 -29 -33 -49 l-32 -35 -83 55 c-76 51 -102 60 -102 36 0 -4 24
-23 53 -40 28 -18 54 -36 57 -39 3 -4 16 -14 29 -23 l23 -16 -25 -22 c-14 -12
-47 -36 -73 -53 -57 -38 -64 -68 -24 -99 23 -17 31 -17 80 -7 126 27 342 175
415 287 15 23 32 42 37 42 11 0 1 -130 -13 -177 -13 -41 -53 -75 -148 -123
-42 -21 -101 -62 -131 -90 -88 -82 -117 -94 -235 -92 -55 2 -109 4 -120 5 -37
4 -30 -18 10 -31 21 -7 41 -15 43 -17 2 -2 -8 -54 -22 -117 -23 -100 -64 -333
-81 -458 -58 -424 -88 -537 -155 -577 -16 -9 -30 -22 -30 -28 0 -6 45 -192
101 -415 95 -384 99 -406 85 -432 -21 -35 -21 -35 16 -43 26 -6 35 -3 50 14
14 19 62 31 305 81 158 32 398 81 533 109 135 28 260 51 278 51 27 0 32 -4 32
-24 0 -18 -7 -25 -27 -29 -229 -48 -858 -182 -921 -197 -46 -11 -102 -20 -125
-20 -23 0 -49 -4 -57 -10 -11 -7 -9 -11 13 -19 16 -6 39 -11 52 -11 13 0 203
38 422 85 219 47 441 95 493 106 177 37 190 44 190 100 0 21 2 21 103 15 56
-4 180 -11 276 -16 95 -5 174 -10 175 -12 2 -2 8 -23 15 -47 l13 -44 176 6
c98 4 209 12 247 17 39 6 106 9 150 5 79 -6 304 -14 398 -15 l48 0 -26 -48
c-65 -119 -135 -187 -207 -198 -47 -8 -68 -29 -47 -48 53 -51 173 -1 252 104
27 36 52 66 56 68 5 2 12 -13 15 -33 11 -54 44 -127 74 -158 14 -15 48 -34 75
-42 83 -25 253 -38 402 -31 303 13 363 40 406 184 7 23 15 42 19 42 4 0 15
-18 25 -40 37 -82 133 -133 150 -79 5 16 -1 28 -27 50 -18 15 -36 28 -40 29
-7 0 -58 151 -58 172 0 28 -45 100 -70 113 -34 18 -151 42 -248 51 l-72 7 25
33 c148 194 134 567 -31 820 l-38 59 -1 115 c0 106 -2 119 -28 165 -15 28 -41
65 -58 84 -16 19 -53 73 -81 120 -111 188 -131 208 -188 202 -77 -9 -297 -112
-438 -206 -275 -182 -514 -449 -706 -787 -25 -45 -56 -64 -56 -35 0 20 99 188
170 289 226 321 510 565 817 704 54 24 99 47 101 52 4 13 -130 212 -215 317
-200 248 -384 388 -719 549 -167 81 -193 87 -237 53 l-32 -25 -88 82 c-48 44
-87 84 -87 87 0 4 16 9 36 12 76 13 174 98 174 153 0 12 5 14 18 8 9 -4 49 -9
89 -12 64 -4 79 -1 135 25 99 47 158 119 158 195 0 20 12 50 30 77 17 24 35
63 41 85 25 93 -18 226 -95 292 -45 39 -124 68 -167 62 l-29 -5 6 86 c20 265
-112 579 -329 788 -135 129 -290 212 -461 248 -79 16 -286 27 -361 19z m-819
-800 c36 -9 68 -23 71 -30 3 -8 -7 -45 -23 -84 -20 -52 -32 -70 -46 -70 -27 0
-158 31 -158 37 0 15 75 163 82 163 5 0 38 -7 74 -16z m398 -49 c32 -32 34
-120 4 -139 -27 -17 -59 21 -65 78 -8 66 24 98 61 61z m200 -20 c22 -22 29
-54 16 -70 -15 -18 -44 -19 -58 -2 -15 17 -25 64 -17 76 9 16 41 13 59 -4z
m-517 -515 c34 -39 35 -42 17 -55 -11 -8 -22 -15 -26 -15 -12 0 -44 69 -67
144 -29 93 -25 103 11 29 16 -34 46 -80 65 -103z m723 38 l25 -17 -23 0 c-15
-1 -43 19 -83 58 -32 32 -59 62 -59 66 0 4 26 -15 58 -42 32 -26 69 -56 82
-65z m-470 2 c72 -56 155 -95 249 -116 42 -10 77 -18 79 -19 1 -1 -5 -15 -13
-32 -8 -16 -20 -64 -27 -106 l-12 -77 -43 0 c-30 0 -49 -6 -63 -20 -23 -23
-30 -25 -30 -7 0 24 -58 134 -90 170 l-32 37 39 0 c22 0 48 6 58 14 17 12 17
16 5 31 -7 9 -27 23 -43 32 -37 18 -111 87 -140 127 -12 17 -15 26 -7 20 8 -6
40 -30 70 -54z m1369 6 c46 -24 89 -82 107 -143 55 -188 -89 -396 -282 -407
-48 -3 -62 -9 -81 -31 -29 -33 -29 -39 1 -62 13 -11 71 -63 130 -117 58 -55
115 -105 126 -113 11 -8 20 -19 20 -24 0 -23 -196 -266 -280 -348 -48 -46
-127 -99 -135 -89 -1 2 -10 17 -18 34 -18 35 -77 109 -184 233 -41 46 -72 85
-71 86 2 2 35 24 73 50 100 68 155 114 155 131 0 24 -20 16 -84 -34 -206 -162
-398 -221 -582 -177 -143 33 -256 106 -323 206 -22 33 -41 65 -41 70 0 5 17 9
37 9 117 0 213 119 213 264 l0 51 73 -3 73 -3 17 -48 c46 -131 183 -220 321
-209 166 14 276 150 264 328 l-5 66 36 12 c20 7 43 15 52 18 18 6 35 -31 68
-146 14 -51 22 -66 39 -68 28 -4 31 10 46 192 14 172 32 224 88 264 38 26 104
30 147 8z m-686 -74 c43 -19 84 -55 118 -104 25 -35 9 -44 -27 -15 -24 19 -41
22 -109 22 -90 0 -183 -11 -205 -25 -13 -8 -12 -11 4 -23 18 -13 17 -15 -16
-21 -37 -7 -63 -27 -51 -39 3 -4 41 -7 83 -7 l77 0 6 -46 c2 -25 9 -50 14 -55
5 -5 50 -6 109 -2 l99 8 -4 30 c-1 17 -10 43 -18 58 -8 16 -13 30 -11 32 2 1
22 5 45 9 42 6 42 6 52 -31 14 -48 14 -138 1 -182 -14 -52 -70 -117 -125 -147
-128 -71 -310 2 -376 152 -29 64 -36 169 -15 230 49 148 208 219 349 156z
m259 -60 l18 -33 -48 -20 c-43 -19 -48 -19 -57 -4 -5 9 -20 29 -32 43 -13 15
-23 30 -23 34 0 7 67 16 104 14 11 -1 27 -15 38 -34z m-1029 -28 c130 -44 218
-203 195 -351 -12 -77 -46 -127 -108 -158 -115 -58 -234 -4 -301 138 -77 167
-20 351 118 377 21 4 41 8 44 9 3 0 26 -6 52 -15z m290 -877 c20 -6 37 -15 37
-20 0 -13 -70 -107 -80 -107 -4 0 -6 8 -4 18 3 9 -10 47 -28 84 l-34 67 36
-16 c19 -9 52 -20 73 -26z m2746 -1137 c55 -28 81 -64 81 -114 0 -22 -4 -47
-9 -55 -15 -23 -31 -2 -29 39 3 87 -62 122 -185 101 -285 -50 -704 -273 -963
-512 -48 -44 -89 -67 -101 -55 -9 9 136 145 232 217 284 212 687 390 903 398
18 0 50 -8 71 -19z m-3300 -294 c71 -145 131 -322 116 -346 -14 -23 -25 -4
-59 100 -19 60 -51 146 -70 190 -34 75 -47 138 -28 126 5 -3 23 -34 41 -70z
m3210 -114 c11 -37 27 -92 35 -122 15 -60 60 -225 76 -280 16 -56 80 -289 99
-360 l17 -65 120 -12 c65 -6 139 -16 163 -21 43 -10 70 -27 59 -37 -13 -13
-164 -34 -272 -37 l-120 -3 -48 180 c-27 99 -62 232 -79 295 -16 63 -36 135
-44 160 -19 65 -73 268 -84 318 -7 33 -6 46 6 57 25 26 50 1 72 -73z m-2785
-197 c20 -9 85 -38 144 -67 263 -125 404 -188 421 -188 6 0 11 -2 11 -4 0 -8
-31 -72 -43 -88 -9 -13 -9 -23 -1 -35 25 -39 76 -16 67 30 -3 14 2 40 11 59
l17 35 227 23 c345 35 385 39 413 44 l26 5 7 -134 c4 -73 9 -144 11 -157 2
-12 6 -49 10 -81 l6 -57 -83 5 c-878 53 -917 57 -1003 91 -33 13 -105 48 -160
79 -55 30 -110 55 -122 55 -34 0 -73 -18 -73 -34 0 -10 11 -12 43 -9 38 5 54
-1 120 -38 42 -24 77 -47 77 -50 0 -11 -116 -32 -175 -31 -112 1 -286 75 -306
128 -13 36 16 62 144 125 135 67 146 74 131 89 -6 6 -57 -14 -144 -58 -115
-58 -138 -73 -155 -104 -18 -35 -19 -38 -3 -72 11 -21 35 -45 64 -62 57 -34
44 -42 -28 -18 -113 37 -155 85 -139 156 24 103 29 107 285 220 99 44 140 77
79 65 -55 -11 -308 -128 -336 -156 -15 -15 -39 -54 -53 -86 l-25 -60 5 68 c7
83 36 142 86 171 51 30 362 155 386 155 12 1 38 -6 58 -14z m2398 -453 c39
-34 52 -44 139 -114 161 -130 209 -169 209 -172 0 -2 -30 -1 -67 2 l-67 5
-144 115 c-153 122 -180 154 -147 178 27 20 40 18 77 -14z m366 6 c6 -13 38
-84 71 -158 l60 -135 -46 -3 c-30 -2 -49 1 -54 10 -34 52 -118 260 -112 275
14 39 63 45 81 11z m-268 -248 c13 -8 13 -10 -2 -10 -9 0 -20 5 -23 10 -8 13
5 13 25 0z m5 -54 c158 -48 683 -45 833 4 l53 18 -7 -47 c-9 -60 -41 -166 -65
-213 -11 -21 -32 -44 -48 -53 -53 -27 -171 -39 -371 -39 -207 1 -304 13 -356
45 -36 22 -67 85 -88 181 -25 114 -27 130 -13 124 6 -2 35 -12 62 -20z"/>
<path d="M4385 4943 c-57 -60 -145 -196 -145 -223 0 -15 21 -12 40 5 15 14 19
13 35 -5 17 -18 17 -21 1 -45 -10 -14 -24 -29 -32 -32 -18 -7 -18 -33 1 -33
20 0 64 46 71 74 6 25 -18 82 -37 88 -10 3 40 86 90 148 40 49 19 69 -24 23z"/>
<path d="M3310 4256 c0 -17 51 -30 82 -20 21 6 21 7 3 20 -25 19 -85 18 -85 0z"/>
<path d="M3698 4633 c-31 -5 -34 -13 -16 -31 16 -16 116 -15 147 1 49 25 37
37 -36 36 -37 -1 -80 -4 -95 -6z"/>
<path d="M2903 4803 c-44 -3 -63 -8 -63 -17 0 -8 10 -17 23 -21 19 -6 16 -8
-21 -18 -49 -14 -62 -29 -62 -74 0 -28 4 -33 23 -33 21 0 27 -10 52 -97 15
-54 34 -108 42 -120 16 -28 49 -32 38 -5 -4 9 -20 61 -36 114 -16 53 -36 113
-44 133 -19 43 -12 47 65 37 52 -7 55 -9 58 -37 2 -16 8 -43 14 -58 11 -28 11
-28 82 -22 103 9 99 5 72 81 -31 85 -64 120 -128 133 -27 6 -50 10 -51 9 -1
-1 -30 -3 -64 -5z"/>
<path d="M3022 4563 c-24 -9 18 -43 54 -43 41 0 84 19 84 37 0 9 -17 13 -62
12 -35 0 -69 -3 -76 -6z"/>
<path d="M5510 1792 c0 -13 111 -105 118 -98 3 4 -18 29 -48 56 -54 48 -70 58
-70 42z"/>
<path d="M5655 1680 c-4 -7 -1 -16 6 -21 17 -10 26 8 11 23 -6 6 -12 6 -17 -2z"/>
<path d="M5870 1798 c0 -17 77 -197 91 -212 24 -26 14 11 -27 105 -48 108 -64
134 -64 107z"/>
<path d="M2745 3633 c-28 -15 -125 -22 -179 -12 -33 7 -28 -18 5 -30 54 -19
139 -13 183 12 40 22 58 47 34 47 -7 -1 -26 -8 -43 -17z"/>
<path d="M855 3355 c-14 -13 -25 -34 -26 -47 -2 -44 3 -93 13 -138 5 -25 11
-54 14 -65 8 -44 38 -177 70 -311 18 -78 45 -195 59 -260 14 -66 44 -195 65
-289 22 -93 51 -222 66 -285 30 -130 51 -179 89 -204 45 -29 1301 -366 1365
-366 35 0 80 38 80 69 0 33 -371 1504 -392 1552 -41 98 19 79 -823 255 -66 14
-151 32 -190 40 -38 9 -90 19 -115 24 -25 5 -87 18 -139 30 -116 25 -107 25
-136 -5z m166 -149 c41 -8 133 -28 205 -45 71 -17 206 -46 299 -66 94 -20 208
-44 255 -55 47 -11 139 -31 205 -45 66 -14 127 -28 135 -30 10 -3 24 -35 37
-88 11 -45 39 -154 61 -242 23 -88 64 -254 92 -370 28 -115 76 -310 107 -433
31 -122 54 -225 51 -228 -5 -5 -602 141 -779 190 -52 15 -172 47 -268 71 -96
25 -176 47 -178 48 -3 4 -41 163 -159 677 -41 179 -91 392 -110 474 -18 82
-34 151 -34 153 0 4 -4 5 81 -11z"/>
<path d="M1010 2043 c-152 -61 -230 -98 -227 -107 8 -23 52 -16 150 24 56 23
108 44 115 47 13 6 17 39 5 46 -5 2 -24 -2 -43 -10z"/>
<path d="M1065 1791 c-22 -10 -55 -31 -74 -47 l-34 -28 -196 -1 c-108 -1 -206
-5 -219 -10 -18 -6 -22 -14 -20 -34 2 -14 8 -25 13 -24 52 8 257 14 309 8 61
-6 67 -9 64 -28 -3 -19 -17 -25 -105 -46 -92 -22 -103 -27 -103 -47 0 -20 16
-27 148 -69 81 -26 197 -71 257 -100 175 -85 404 -156 565 -175 85 -10 154
-30 418 -116 60 -20 92 -18 227 15 66 16 173 41 238 56 116 26 144 42 119 67
-5 5 -90 35 -188 65 -133 41 -185 61 -203 80 -42 44 -115 65 -355 103 -71 11
-132 22 -135 25 -4 2 -128 40 -276 85 -249 75 -275 81 -340 78 -70 -4 -135 11
-135 32 0 14 58 49 93 57 15 3 27 8 27 12 -1 6 -47 61 -52 61 -2 0 -21 -9 -43
-19z m-25 -161 c12 -8 11 -10 -7 -10 -13 0 -23 5 -23 10 0 13 11 13 30 0z
m410 -81 c165 -49 164 -48 158 -54 -7 -7 -215 22 -281 40 -33 8 -80 27 -105
42 -44 26 -45 28 -22 33 14 4 45 0 70 -7 25 -8 106 -32 180 -54z m-262 11 c37
-22 90 -46 117 -55 59 -17 223 -41 386 -54 93 -8 149 -20 280 -60 216 -66 248
-78 229 -84 -8 -3 -76 -16 -150 -28 -193 -32 -343 -31 -480 3 -287 72 -525
181 -565 258 -9 17 -14 30 -13 31 2 1 30 7 63 14 33 7 61 13 63 14 2 0 34 -17
70 -39z m-263 -37 c11 -21 21 -41 23 -45 3 -6 -115 29 -168 50 -12 4 69 26
116 31 6 1 19 -16 29 -36z m1522 -275 c79 -23 143 -45 143 -48 0 -6 -342 -90
-402 -98 -28 -3 -74 7 -173 38 -74 24 -132 47 -130 50 3 4 33 11 67 14 92 11
269 43 300 54 14 6 29 16 33 21 9 15 3 16 162 -31z"/>
<path d="M3273 1342 l-33 -3 0 -59 c0 -51 3 -61 22 -71 17 -9 117 -10 403 -5
340 6 381 8 393 23 7 10 11 22 9 27 -4 11 -544 11 -719 0 -65 -5 -98 -3 -98 4
0 14 75 18 464 21 187 1 343 4 348 7 13 8 9 40 -6 53 -10 8 -116 11 -382 9
-203 -1 -384 -4 -401 -6z"/>
</g>
</svg>
